<svg xmlns="http://www.w3.org/2000/svg" xmlns:xlink="http://www.w3.org/1999/xlink" width="2000" zoomAndPan="magnify" viewBox="0 0 1500 1499.999933" height="2000" preserveAspectRatio="xMidYMid meet" version="1.0"><defs><g/><clipPath id="24da29f119"><path d="M 450 519.613281 L 1048 519.613281 L 1048 986.863281 L 450 986.863281 Z M 450 519.613281 " clip-rule="nonzero"/></clipPath><clipPath id="118dc6ad82"><rect x="0" width="455" y="0" height="316"/></clipPath></defs><rect x="-150" width="1800" fill="#ffffff" y="-149.999993" height="1799.99992" fill-opacity="1"/><rect x="-150" width="1800" fill="#ffffff" y="-149.999993" height="1799.99992" fill-opacity="1"/><g clip-path="url(#24da29f119)"><path fill="#b81d23" d="M 971.109375 585.589844 C 971.109375 585.589844 969.191406 586.207031 966.347656 587.203125 C 963.507812 588.125 959.664062 589.433594 955.824219 590.660156 C 948.066406 592.964844 940.386719 595.269531 940.386719 595.269531 C 944.765625 596.652344 949.296875 598.878906 952.445312 602.105469 C 958.207031 607.945312 964.734375 619.773438 956.054688 626.378906 C 954.828125 627.300781 952.367188 627.457031 951.214844 626.609375 C 948.144531 624.613281 947.605469 622.539062 946.300781 619.3125 C 944.765625 615.625 942.535156 612.628906 939.925781 609.480469 C 937.695312 606.714844 935.238281 604.179688 932.859375 601.570312 C 931.707031 600.261719 930.476562 599.1875 929.246094 598.1875 C 929.246094 598.1875 927.328125 598.726562 924.40625 599.496094 C 922.949219 599.878906 921.257812 600.339844 919.414062 600.800781 C 917.570312 601.261719 915.652344 601.722656 913.652344 602.183594 C 909.734375 603.105469 905.820312 604.105469 902.898438 604.796875 C 901.441406 605.179688 900.210938 605.410156 899.367188 605.5625 C 898.519531 605.71875 897.984375 605.871094 897.984375 605.871094 C 902.363281 607.636719 906.585938 610.09375 909.582031 613.476562 C 914.960938 619.621094 920.722656 631.835938 911.65625 637.980469 C 910.425781 638.824219 907.96875 638.824219 906.742188 637.902344 C 903.820312 635.675781 903.359375 633.601562 902.207031 630.296875 C 900.902344 626.457031 898.828125 623.382812 896.445312 620.082031 C 894.375 617.238281 892.144531 614.550781 889.917969 611.785156 C 888.84375 610.480469 887.691406 609.328125 886.539062 608.175781 C 886.539062 608.175781 884.539062 608.636719 881.621094 609.171875 C 878.625 609.710938 874.707031 610.480469 870.714844 611.171875 C 866.71875 611.863281 862.800781 612.628906 859.804688 613.089844 C 856.8125 613.550781 854.8125 613.859375 854.8125 613.859375 C 859.039062 615.78125 863.1875 618.699219 865.953125 622.230469 C 868.488281 625.457031 870.945312 630.222656 871.636719 634.828125 C 872.019531 637.132812 871.867188 639.4375 871.097656 641.511719 C 870.332031 643.585938 868.871094 645.429688 866.488281 646.734375 C 865.183594 647.503906 862.726562 647.273438 861.648438 646.351562 C 858.808594 643.972656 858.578125 641.898438 857.65625 638.515625 C 856.582031 634.597656 854.738281 631.449219 852.585938 627.992188 C 850.664062 624.996094 848.589844 622.230469 846.59375 619.3125 C 845.597656 617.929688 844.597656 616.703125 843.445312 615.472656 C 843.445312 615.472656 835.457031 616.472656 827.46875 617.46875 C 823.472656 618.007812 819.480469 618.316406 816.40625 618.621094 C 813.410156 618.929688 811.414062 619.082031 811.414062 619.082031 C 815.484375 621.234375 819.480469 624.382812 822.015625 628.148438 C 826.621094 634.984375 830.769531 647.886719 821.015625 652.652344 C 819.632812 653.34375 817.25 652.957031 816.175781 651.960938 C 813.5625 649.425781 813.410156 647.273438 812.640625 643.894531 C 811.796875 639.976562 810.183594 636.671875 808.265625 633.140625 C 806.574219 630.066406 804.652344 627.070312 802.808594 624.074219 C 801.886719 622.617188 800.964844 621.308594 799.890625 620.082031 C 799.890625 620.082031 797.894531 620.234375 794.898438 620.464844 C 791.902344 620.621094 787.832031 621.003906 783.835938 621.15625 C 775.769531 621.539062 767.707031 621.847656 767.707031 621.847656 C 771.625 624.304688 775.386719 627.53125 777.691406 631.449219 C 781.839844 638.515625 785.21875 651.652344 775.15625 655.878906 C 773.773438 656.492188 771.316406 656.03125 770.394531 654.957031 C 767.9375 652.265625 767.9375 650.117188 767.398438 646.660156 C 766.785156 642.664062 765.402344 639.285156 763.632812 635.597656 C 762.097656 632.371094 760.410156 629.375 758.796875 626.226562 C 758.027344 624.691406 757.105469 623.382812 756.183594 622.078125 C 756.183594 622.078125 754.1875 622.078125 751.113281 622.15625 C 748.117188 622.230469 744.046875 622.078125 740.050781 622.078125 C 736.058594 622 731.988281 622 728.992188 621.925781 C 725.996094 621.769531 723.921875 621.695312 723.921875 621.695312 C 725.839844 623.078125 727.609375 624.613281 729.222656 626.378906 C 730.835938 628.148438 732.21875 629.992188 733.292969 631.988281 C 736.980469 639.285156 739.515625 652.574219 729.222656 656.261719 C 727.761719 656.722656 725.378906 656.109375 724.535156 654.957031 C 722.230469 652.035156 722.386719 649.960938 722.078125 646.503906 C 721.769531 642.511719 720.542969 638.976562 719.082031 635.214844 C 717.777344 631.910156 716.238281 628.761719 714.855469 625.613281 C 714.164062 624.074219 713.320312 622.691406 712.476562 621.308594 C 712.476562 621.308594 711.9375 621.308594 711.09375 621.234375 C 710.25 621.15625 708.941406 621.078125 707.484375 621.003906 C 704.488281 620.773438 700.417969 620.542969 696.421875 620.3125 C 692.425781 620.082031 688.355469 619.699219 685.359375 619.390625 C 682.363281 619.082031 680.367188 618.929688 680.367188 618.929688 C 683.976562 621.847656 687.28125 625.613281 689.046875 629.835938 C 690.660156 633.675781 691.890625 638.824219 691.429688 643.511719 C 691.199219 645.8125 690.507812 648.042969 689.277344 649.886719 C 688.050781 651.652344 686.128906 653.035156 683.515625 653.726562 C 682.058594 654.109375 679.753906 653.34375 678.90625 652.113281 C 676.757812 649.117188 677.0625 647.042969 676.988281 643.511719 C 676.910156 639.515625 675.914062 635.90625 674.683594 632.066406 C 673.609375 628.683594 672.226562 625.535156 670.996094 622.15625 C 670.382812 620.542969 669.691406 619.082031 668.921875 617.699219 C 668.921875 617.699219 660.933594 616.703125 652.945312 615.78125 C 644.957031 614.628906 636.96875 613.398438 636.96875 613.398438 C 640.347656 616.546875 643.496094 620.464844 644.957031 624.765625 C 647.722656 632.527344 648.566406 646.042969 637.890625 648.273438 C 636.429688 648.578125 634.125 647.65625 633.355469 646.429688 C 631.4375 643.28125 631.820312 641.207031 631.972656 637.75 C 632.128906 633.753906 631.359375 630.144531 630.359375 626.226562 C 629.515625 622.769531 628.363281 619.46875 627.367188 616.085938 C 626.90625 614.472656 626.214844 612.9375 625.523438 611.476562 C 625.523438 611.476562 623.523438 611.09375 620.527344 610.632812 C 619.070312 610.402344 617.300781 610.09375 615.457031 609.710938 C 613.617188 609.328125 611.617188 608.941406 609.699219 608.480469 C 605.78125 607.636719 601.785156 606.871094 598.867188 606.253906 C 597.40625 605.949219 596.179688 605.71875 595.332031 605.488281 C 594.488281 605.257812 593.949219 605.179688 593.949219 605.179688 C 594.71875 606.023438 595.488281 606.945312 596.253906 607.867188 C 597.023438 608.789062 597.714844 609.710938 598.328125 610.710938 C 599.636719 612.707031 600.632812 614.78125 601.25 617.007812 C 603.476562 624.84375 603.550781 638.363281 592.722656 640.054688 C 591.261719 640.285156 588.957031 639.285156 588.34375 637.980469 C 586.652344 634.675781 587.113281 632.679688 587.5 629.144531 C 587.882812 625.152344 587.34375 621.464844 586.652344 617.46875 C 585.960938 614.011719 585.039062 610.632812 584.273438 607.175781 C 583.886719 605.488281 583.351562 603.949219 582.734375 602.492188 C 582.734375 602.492188 580.738281 602.03125 577.820312 601.339844 C 574.902344 600.570312 570.984375 599.570312 567.066406 598.496094 C 563.148438 597.421875 559.230469 596.5 556.386719 595.578125 C 553.46875 594.734375 551.550781 594.195312 551.550781 594.195312 C 554.542969 597.726562 557.078125 602.183594 558.078125 606.5625 C 559.84375 614.472656 559 628.070312 548.167969 628.992188 C 546.632812 629.070312 544.480469 627.917969 543.945312 626.535156 C 542.40625 623.152344 543.097656 621.15625 543.636719 617.699219 C 544.328125 613.707031 544.019531 610.019531 543.484375 606.023438 C 543.023438 602.492188 542.332031 599.109375 541.71875 595.65625 C 541.410156 593.964844 540.949219 592.429688 540.488281 590.890625 C 540.488281 590.890625 532.804688 588.433594 525.125 585.898438 C 524.203125 585.589844 523.203125 585.285156 522.28125 584.976562 C 521.359375 584.667969 520.4375 584.285156 519.515625 583.976562 C 517.75 583.363281 516.0625 582.75 514.679688 582.289062 C 511.835938 581.289062 509.914062 580.597656 509.914062 580.597656 C 512.679688 584.285156 514.984375 588.816406 515.675781 593.273438 C 516.90625 601.414062 515.214844 614.859375 504.386719 615.089844 C 502.847656 615.089844 500.773438 613.78125 500.3125 612.398438 C 499.007812 608.941406 499.777344 607.023438 500.542969 603.566406 C 501.464844 599.648438 501.390625 595.960938 501.160156 591.96875 C 500.929688 588.433594 500.46875 584.976562 500.082031 581.445312 C 499.929688 579.753906 499.546875 578.140625 499.160156 576.605469 C 499.160156 576.605469 497.316406 575.914062 494.476562 574.761719 C 491.632812 573.683594 487.871094 572.226562 484.183594 570.691406 C 476.730469 567.539062 469.28125 564.46875 469.28125 564.46875 C 471.816406 568.308594 473.8125 572.917969 474.273438 577.449219 C 475.042969 585.589844 472.507812 598.957031 461.597656 598.496094 C 460.0625 598.417969 458.066406 596.960938 457.679688 595.578125 C 456.605469 592.042969 457.449219 590.199219 458.449219 586.820312 C 459.601562 582.980469 459.753906 579.292969 459.753906 575.222656 C 459.753906 571.6875 459.523438 568.15625 459.371094 564.621094 C 459.292969 562.929688 459.0625 561.316406 458.757812 559.703125 L 450 555.710938 L 455.300781 544.417969 L 463.902344 548.335938 C 465.285156 547.492188 466.59375 546.648438 467.898438 545.570312 C 470.585938 543.34375 473.273438 541.191406 475.808594 538.734375 C 478.730469 535.96875 481.1875 533.359375 483.183594 529.824219 C 484.949219 526.75 485.71875 524.832031 488.792969 523.0625 C 490.019531 522.375 492.171875 522.679688 493.167969 523.679688 C 500.007812 530.667969 492.9375 542.113281 486.71875 547.335938 C 483.335938 550.257812 478.730469 552.101562 474.195312 552.945312 C 474.195312 552.945312 481.492188 556.019531 488.792969 559.089844 C 492.480469 560.625 496.164062 562.007812 498.929688 563.085938 C 501.695312 564.160156 503.539062 564.851562 503.539062 564.851562 C 504.847656 563.929688 506.152344 563.007812 507.378906 561.855469 C 509.914062 559.472656 512.449219 557.171875 514.832031 554.558594 C 517.597656 551.5625 519.902344 548.796875 521.667969 545.1875 C 523.203125 542.039062 523.894531 540.039062 526.816406 538.121094 C 527.96875 537.351562 530.195312 537.503906 531.191406 538.425781 C 538.492188 545.035156 532.113281 556.863281 526.277344 562.46875 C 523.050781 565.542969 518.59375 567.617188 514.140625 568.847656 C 514.140625 568.847656 515.984375 569.539062 518.824219 570.535156 C 520.207031 570.996094 521.820312 571.613281 523.589844 572.226562 C 524.433594 572.53125 525.355469 572.839844 526.277344 573.148438 C 527.199219 573.453125 528.121094 573.761719 529.121094 574.070312 C 536.648438 576.527344 544.175781 578.984375 544.175781 578.984375 C 545.402344 577.988281 546.632812 576.910156 547.785156 575.683594 C 550.167969 573.070312 552.625 570.613281 554.773438 567.847656 C 557.308594 564.699219 559.460938 561.777344 560.996094 558.09375 C 562.304688 554.867188 562.917969 552.867188 565.683594 550.71875 C 566.757812 549.871094 568.984375 549.949219 570.0625 550.792969 C 577.742188 556.863281 572.136719 569 566.605469 575.066406 C 563.609375 578.449219 559.230469 580.675781 554.929688 582.136719 C 554.929688 582.136719 556.847656 582.671875 559.691406 583.519531 C 562.535156 584.363281 566.375 585.359375 570.214844 586.359375 C 574.054688 587.359375 577.898438 588.355469 580.738281 589.125 C 583.65625 589.816406 585.578125 590.277344 585.578125 590.277344 C 586.808594 589.203125 587.960938 588.050781 589.035156 586.742188 C 591.261719 584.054688 593.488281 581.367188 595.5625 578.523438 C 597.867188 575.296875 599.867188 572.226562 601.171875 568.386719 C 602.324219 565.082031 602.707031 563.007812 605.394531 560.78125 C 606.472656 559.933594 608.621094 559.78125 609.773438 560.550781 C 617.839844 566.082031 613 578.601562 607.855469 584.976562 C 606.472656 586.742188 604.703125 588.28125 602.785156 589.585938 C 601.785156 590.277344 600.789062 590.890625 599.789062 591.429688 C 598.789062 591.96875 597.714844 592.429688 596.640625 592.8125 C 596.640625 592.8125 597.101562 592.890625 597.945312 593.121094 C 598.789062 593.351562 600.019531 593.582031 601.480469 593.886719 C 604.398438 594.503906 608.238281 595.269531 612.15625 596.117188 C 614.078125 596.5 615.996094 596.882812 617.839844 597.265625 C 619.683594 597.574219 621.375 597.882812 622.832031 598.1875 C 625.753906 598.726562 627.671875 599.035156 627.671875 599.035156 C 628.824219 597.882812 629.898438 596.730469 630.898438 595.347656 C 632.972656 592.503906 635.046875 589.738281 636.890625 586.820312 C 639.042969 583.441406 640.808594 580.214844 641.804688 576.375 C 642.726562 572.992188 643.035156 570.921875 645.570312 568.460938 C 646.570312 567.464844 648.796875 567.234375 649.949219 567.925781 C 658.320312 572.992188 654.328125 585.820312 649.566406 592.429688 C 646.953125 596.113281 642.957031 598.957031 638.8125 600.953125 C 638.8125 600.953125 646.644531 602.105469 654.480469 603.257812 C 662.316406 604.179688 670.226562 605.179688 670.226562 605.179688 C 671.304688 603.949219 672.300781 602.722656 673.148438 601.261719 C 674.992188 598.34375 676.910156 595.347656 678.601562 592.273438 C 680.519531 588.742188 682.058594 585.4375 682.902344 581.445312 C 683.59375 577.988281 683.746094 575.914062 686.207031 573.300781 C 687.128906 572.300781 689.277344 571.917969 690.507812 572.53125 C 692.65625 573.683594 694.117188 575.375 694.960938 577.371094 C 695.808594 579.292969 696.113281 581.597656 695.960938 583.902344 C 695.730469 588.585938 693.808594 593.582031 691.660156 597.035156 C 689.277344 600.800781 685.515625 603.949219 681.441406 606.179688 C 681.441406 606.179688 683.441406 606.332031 686.359375 606.640625 C 689.277344 606.945312 693.273438 607.332031 697.191406 607.5625 C 701.105469 607.792969 705.101562 608.097656 708.019531 608.25 C 709.480469 608.328125 710.710938 608.40625 711.632812 608.480469 C 712.476562 608.480469 713.011719 608.558594 713.011719 608.558594 C 714.011719 607.253906 714.933594 605.949219 715.703125 604.488281 C 717.390625 601.414062 719.082031 598.417969 720.542969 595.195312 C 722.230469 591.582031 723.613281 588.125 724.152344 584.207031 C 724.613281 580.753906 724.691406 578.679688 726.917969 575.914062 C 727.761719 574.835938 729.914062 574.375 731.140625 574.914062 C 740.128906 578.832031 737.671875 592.042969 733.832031 599.265625 C 732.753906 601.261719 731.371094 603.105469 729.683594 604.71875 C 728.070312 606.332031 726.148438 607.792969 724.230469 609.019531 C 724.230469 609.019531 726.226562 609.097656 729.144531 609.171875 C 732.140625 609.25 736.058594 609.25 740.050781 609.328125 C 744.046875 609.328125 747.964844 609.480469 750.960938 609.402344 C 753.957031 609.328125 755.875 609.328125 755.875 609.328125 C 756.796875 608.023438 757.644531 606.640625 758.335938 605.101562 C 759.792969 601.953125 761.332031 598.804688 762.636719 595.578125 C 764.09375 591.8125 765.246094 588.355469 765.554688 584.363281 C 765.863281 580.90625 765.707031 578.832031 767.78125 575.914062 C 768.550781 574.761719 770.703125 574.144531 771.929688 574.605469 C 781.148438 577.988281 779.535156 591.351562 776.15625 598.726562 C 774.3125 602.796875 770.933594 606.410156 767.167969 609.171875 C 767.167969 609.171875 775.078125 608.867188 782.992188 608.480469 C 786.984375 608.328125 790.902344 608.023438 793.824219 607.792969 C 796.820312 607.5625 798.738281 607.40625 798.738281 607.40625 C 799.582031 606.023438 800.273438 604.640625 800.890625 603.027344 C 802.195312 599.726562 803.5 596.652344 804.578125 593.273438 C 805.804688 589.433594 806.726562 585.898438 806.804688 581.828125 C 806.882812 578.371094 806.652344 576.21875 808.496094 573.222656 C 809.261719 572.070312 811.257812 571.304688 812.566406 571.6875 C 821.9375 574.605469 821.246094 587.972656 818.328125 595.578125 C 816.714844 599.726562 813.5625 603.566406 810.03125 606.484375 C 810.03125 606.484375 812.027344 606.253906 814.945312 606.023438 C 817.867188 605.71875 821.859375 605.410156 825.777344 604.871094 C 833.613281 603.875 841.523438 602.875 841.523438 602.875 C 842.214844 601.492188 842.90625 599.957031 843.445312 598.34375 C 844.519531 594.964844 845.671875 591.738281 846.519531 588.28125 C 847.515625 584.363281 848.207031 580.828125 847.976562 576.757812 C 847.824219 573.300781 847.4375 571.226562 849.128906 568.078125 C 849.820312 566.847656 851.816406 566.003906 853.125 566.3125 C 855.503906 566.925781 857.273438 568.15625 858.65625 569.84375 C 859.960938 571.535156 860.804688 573.683594 861.265625 575.988281 C 862.1875 580.597656 861.574219 585.898438 860.34375 589.816406 C 859.039062 594.117188 856.121094 598.035156 852.738281 601.183594 C 852.738281 601.183594 854.660156 600.878906 857.65625 600.417969 C 860.574219 600.03125 864.492188 599.265625 868.410156 598.574219 C 872.328125 597.882812 876.167969 597.113281 879.085938 596.574219 C 882.007812 596.039062 883.925781 595.578125 883.925781 595.578125 C 884.539062 594.117188 885.15625 592.582031 885.539062 590.96875 C 886.382812 587.589844 887.304688 584.207031 887.921875 580.753906 C 888.613281 576.835938 889.148438 573.222656 888.6875 569.230469 C 888.304688 565.773438 887.84375 563.699219 889.304688 560.550781 C 889.917969 559.320312 891.839844 558.246094 893.144531 558.476562 C 902.824219 560.089844 903.746094 573.453125 901.824219 581.367188 C 900.75 585.746094 898.136719 589.96875 894.988281 593.273438 C 894.988281 593.273438 895.449219 593.195312 896.292969 592.964844 C 897.136719 592.8125 898.367188 592.503906 899.828125 592.199219 C 902.746094 591.507812 906.585938 590.585938 910.425781 589.664062 C 912.347656 589.203125 914.269531 588.742188 916.113281 588.28125 C 917.878906 587.820312 919.570312 587.359375 921.027344 586.972656 C 923.871094 586.207031 925.789062 585.667969 925.789062 585.667969 C 926.328125 584.132812 926.789062 582.597656 927.097656 580.984375 C 927.710938 577.527344 928.480469 574.144531 928.863281 570.691406 C 929.324219 566.695312 929.632812 563.085938 928.941406 559.089844 C 928.324219 555.632812 927.710938 553.636719 929.015625 550.332031 C 929.476562 549.027344 931.398438 547.875 932.78125 548.027344 C 942.535156 549.105469 944.304688 562.394531 942.84375 570.382812 C 942.074219 574.761719 939.695312 579.140625 936.773438 582.671875 C 936.773438 582.671875 944.378906 580.367188 951.90625 578.140625 C 955.671875 576.988281 959.433594 575.683594 962.277344 574.761719 C 965.121094 573.839844 966.964844 573.222656 966.964844 573.222656 C 967.425781 571.6875 967.808594 570.152344 967.960938 568.460938 C 968.421875 565.003906 968.882812 561.546875 969.113281 558.015625 C 969.34375 554.019531 969.34375 550.332031 968.421875 546.417969 C 967.578125 543.035156 966.886719 541.039062 967.960938 537.660156 C 968.347656 536.351562 970.1875 535.046875 971.570312 535.125 C 981.402344 535.660156 984.015625 548.796875 983.015625 556.785156 C 982.480469 561.242188 980.40625 565.695312 977.640625 569.382812 C 977.640625 569.382812 979.484375 568.691406 982.324219 567.695312 C 985.089844 566.695312 988.855469 565.390625 992.542969 563.929688 C 999.917969 561.011719 1007.289062 558.167969 1007.289062 558.167969 C 1007.597656 556.632812 1007.90625 555.019531 1007.980469 553.328125 C 1008.210938 549.796875 1008.441406 546.339844 1008.441406 542.804688 C 1008.441406 538.8125 1008.210938 535.125 1007.058594 531.285156 C 1006.0625 527.980469 1005.21875 526.058594 1006.0625 522.605469 C 1006.367188 521.296875 1008.136719 519.914062 1009.519531 519.914062 C 1019.351562 519.683594 1022.730469 532.667969 1022.269531 540.808594 C 1022.039062 545.339844 1020.195312 549.796875 1017.738281 553.714844 C 1017.738281 553.714844 1019.273438 553.023438 1021.578125 552.101562 C 1022.730469 551.5625 1024.113281 551.023438 1025.574219 550.410156 C 1027.03125 549.71875 1028.570312 549.027344 1030.105469 548.335938 C 1036.25 545.496094 1042.394531 542.730469 1042.394531 542.730469 L 1047.773438 553.945312 C 1047.773438 553.945312 1041.550781 556.785156 1035.328125 559.703125 C 1033.792969 560.394531 1032.179688 561.164062 1030.71875 561.777344 C 1029.261719 562.46875 1027.878906 563.007812 1026.648438 563.546875 C 1024.265625 564.542969 1022.730469 565.234375 1022.730469 565.234375 C 1027.261719 566.082031 1032.023438 567.847656 1035.636719 570.613281 C 1042.089844 575.605469 1050 586.589844 1042.242188 594.273438 C 1041.167969 595.347656 1038.707031 595.730469 1037.402344 595.117188 C 1034.097656 593.503906 1033.332031 591.507812 1031.5625 588.511719 C 1029.566406 585.054688 1026.957031 582.367188 1024.035156 579.601562 C 1021.5 577.140625 1018.734375 574.992188 1016.125 572.6875 C 1014.820312 571.535156 1013.511719 570.691406 1012.128906 569.769531 C 1012.128906 569.769531 1004.601562 572.6875 997.152344 575.683594 C 993.386719 577.21875 989.625 578.523438 986.78125 579.523438 C 983.9375 580.523438 982.019531 581.214844 982.019531 581.214844 C 986.550781 582.367188 991.160156 584.363281 994.539062 587.359375 C 1000.683594 592.8125 1007.90625 604.257812 999.6875 611.324219 C 998.535156 612.324219 996.074219 612.554688 994.847656 611.863281 C 991.621094 610.019531 991.007812 608.023438 989.46875 604.871094 C 987.703125 601.261719 985.246094 598.496094 982.554688 595.5 C 980.175781 592.964844 977.5625 590.585938 975.027344 588.050781 C 973.644531 587.589844 972.417969 586.589844 971.109375 585.589844 Z M 971.109375 921.425781 C 971.109375 921.425781 969.191406 920.8125 966.347656 919.8125 C 963.507812 918.890625 959.664062 917.585938 955.824219 916.355469 C 948.066406 914.050781 940.386719 911.746094 940.386719 911.746094 C 944.765625 910.363281 949.296875 908.136719 952.445312 904.910156 C 958.207031 899.074219 964.734375 887.242188 956.054688 880.636719 C 954.828125 879.714844 952.367188 879.5625 951.214844 880.40625 C 948.144531 882.402344 947.605469 884.476562 946.300781 887.703125 C 944.765625 891.390625 942.535156 894.386719 939.925781 897.535156 C 937.695312 900.300781 935.238281 902.835938 932.859375 905.449219 C 931.707031 906.753906 930.476562 907.828125 929.246094 908.828125 C 929.246094 908.828125 927.328125 908.289062 924.40625 907.523438 C 922.949219 907.136719 921.257812 906.675781 919.414062 906.214844 C 917.570312 905.753906 915.652344 905.292969 913.652344 904.832031 C 909.734375 903.910156 905.820312 902.914062 902.898438 902.222656 C 901.441406 901.839844 900.210938 901.609375 899.367188 901.453125 C 898.519531 901.300781 897.984375 901.148438 897.984375 901.148438 C 902.363281 899.378906 906.585938 896.921875 909.582031 893.542969 C 914.960938 887.398438 920.722656 875.183594 911.65625 869.039062 C 910.425781 868.191406 907.96875 868.191406 906.742188 869.113281 C 903.820312 871.34375 903.359375 873.417969 902.207031 876.71875 C 900.902344 880.558594 898.828125 883.632812 896.445312 886.9375 C 894.375 889.777344 892.144531 892.464844 889.917969 895.230469 C 888.84375 896.539062 887.691406 897.691406 886.539062 898.84375 C 886.539062 898.84375 884.539062 898.382812 881.621094 897.84375 C 878.625 897.304688 874.707031 896.539062 870.714844 895.847656 C 866.71875 895.15625 862.800781 894.386719 859.804688 893.925781 C 856.8125 893.464844 854.8125 893.15625 854.8125 893.15625 C 859.039062 891.238281 863.1875 888.320312 865.953125 884.785156 C 868.488281 881.558594 870.945312 876.796875 871.636719 872.1875 C 872.019531 869.882812 871.867188 867.578125 871.097656 865.503906 C 870.332031 863.429688 868.871094 861.585938 866.488281 860.28125 C 865.183594 859.511719 862.726562 859.742188 861.648438 860.664062 C 858.808594 863.046875 858.578125 865.121094 857.65625 868.5 C 856.582031 872.417969 854.738281 875.566406 852.585938 879.023438 C 850.664062 882.019531 848.589844 884.785156 846.59375 887.703125 C 845.597656 889.085938 844.597656 890.316406 843.445312 891.542969 C 843.445312 891.542969 835.457031 890.546875 827.46875 889.546875 C 823.472656 889.011719 819.480469 888.703125 816.40625 888.394531 C 813.410156 888.089844 811.414062 887.933594 811.414062 887.933594 C 815.484375 885.785156 819.480469 882.632812 822.015625 878.871094 C 826.621094 872.035156 830.769531 859.128906 821.015625 854.367188 C 819.632812 853.675781 817.25 854.058594 816.175781 855.058594 C 813.5625 857.59375 813.410156 859.742188 812.640625 863.125 C 811.796875 867.039062 810.183594 870.34375 808.265625 873.878906 C 806.574219 876.949219 804.652344 879.945312 802.808594 882.941406 C 801.886719 884.402344 800.964844 885.707031 799.890625 886.9375 C 799.890625 886.9375 797.894531 886.78125 794.898438 886.550781 C 791.902344 886.398438 787.832031 886.015625 783.835938 885.859375 C 775.769531 885.476562 767.707031 885.167969 767.707031 885.167969 C 771.625 882.710938 775.386719 879.484375 777.691406 875.566406 C 781.839844 868.5 785.21875 855.363281 775.15625 851.140625 C 773.773438 850.527344 771.316406 850.988281 770.394531 852.0625 C 767.9375 854.75 767.9375 856.902344 767.398438 860.359375 C 766.785156 864.351562 765.402344 867.730469 763.632812 871.417969 C 762.097656 874.644531 760.410156 877.640625 758.796875 880.789062 C 758.027344 882.328125 757.105469 883.632812 756.183594 884.9375 C 756.183594 884.9375 754.1875 884.9375 751.113281 884.863281 C 748.117188 884.785156 744.046875 884.9375 740.050781 884.9375 C 736.058594 885.015625 731.988281 885.015625 728.992188 885.09375 C 725.996094 885.246094 723.921875 885.324219 723.921875 885.324219 C 725.839844 883.941406 727.609375 882.402344 729.222656 880.636719 C 730.835938 878.871094 732.21875 877.027344 733.292969 875.03125 C 736.980469 867.730469 739.515625 854.441406 729.222656 850.757812 C 727.761719 850.296875 725.378906 850.910156 724.535156 852.0625 C 722.230469 854.980469 722.386719 857.054688 722.078125 860.511719 C 721.769531 864.507812 720.542969 868.039062 719.082031 871.804688 C 717.777344 875.105469 716.238281 878.257812 714.855469 881.40625 C 714.164062 882.941406 713.320312 884.324219 712.476562 885.707031 C 712.476562 885.707031 711.9375 885.707031 711.09375 885.785156 C 710.25 885.859375 708.941406 885.9375 707.484375 886.015625 C 704.488281 886.246094 700.417969 886.476562 696.421875 886.707031 C 692.425781 886.9375 688.355469 887.320312 685.359375 887.628906 C 682.363281 887.933594 680.367188 888.089844 680.367188 888.089844 C 683.976562 885.167969 687.28125 881.40625 689.046875 877.179688 C 690.660156 873.339844 691.890625 868.191406 691.429688 863.507812 C 691.199219 861.203125 690.507812 858.976562 689.277344 857.132812 C 688.050781 855.363281 686.128906 853.984375 683.515625 853.292969 C 682.058594 852.90625 679.753906 853.675781 678.90625 854.902344 C 676.757812 857.898438 677.0625 859.972656 676.988281 863.507812 C 676.910156 867.5 675.914062 871.113281 674.683594 874.953125 C 673.609375 878.332031 672.226562 881.480469 670.996094 884.863281 C 670.382812 886.476562 669.691406 887.933594 668.921875 889.316406 C 668.921875 889.316406 660.933594 890.316406 652.945312 891.238281 C 644.957031 892.390625 636.96875 893.617188 636.96875 893.617188 C 640.347656 890.46875 643.496094 886.550781 644.957031 882.25 C 647.722656 874.492188 648.566406 860.972656 637.890625 858.746094 C 636.429688 858.4375 634.125 859.359375 633.355469 860.589844 C 631.4375 863.738281 631.820312 865.8125 631.972656 869.269531 C 632.128906 873.261719 631.359375 876.875 630.359375 880.789062 C 629.515625 884.246094 628.363281 887.550781 627.367188 890.929688 C 626.90625 892.542969 626.214844 894.078125 625.523438 895.539062 C 625.523438 895.539062 623.523438 895.921875 620.527344 896.382812 C 619.070312 896.613281 617.300781 896.921875 615.457031 897.304688 C 613.617188 897.691406 611.617188 898.074219 609.699219 898.535156 C 605.78125 899.378906 601.785156 900.148438 598.867188 900.761719 C 597.40625 901.070312 596.179688 901.300781 595.332031 901.53125 C 594.488281 901.761719 593.949219 901.839844 593.949219 901.839844 C 594.71875 900.992188 595.488281 900.070312 596.253906 899.148438 C 597.023438 898.226562 597.714844 897.304688 598.328125 896.308594 C 599.636719 894.308594 600.632812 892.234375 601.25 890.007812 C 603.476562 882.171875 603.550781 868.652344 592.722656 866.964844 C 591.261719 866.734375 588.957031 867.730469 588.34375 869.039062 C 586.652344 872.339844 587.113281 874.339844 587.5 877.871094 C 587.882812 881.867188 587.34375 885.554688 586.652344 889.546875 C 585.960938 893.003906 585.039062 896.382812 584.273438 899.839844 C 583.886719 901.53125 583.351562 903.066406 582.734375 904.527344 C 582.734375 904.527344 580.738281 904.988281 577.820312 905.679688 C 574.902344 906.445312 570.984375 907.445312 567.066406 908.519531 C 563.148438 909.597656 559.230469 910.519531 556.386719 911.441406 C 553.46875 912.285156 551.550781 912.824219 551.550781 912.824219 C 554.542969 909.289062 557.078125 904.832031 558.078125 900.457031 C 559.84375 892.542969 559 878.945312 548.167969 878.027344 C 546.632812 877.949219 544.480469 879.101562 543.945312 880.484375 C 542.40625 883.863281 543.097656 885.859375 543.636719 889.316406 C 544.328125 893.3125 544.019531 897 543.484375 900.992188 C 543.023438 904.527344 542.332031 907.90625 541.71875 911.363281 C 541.410156 913.054688 540.949219 914.589844 540.488281 916.125 C 540.488281 916.125 532.804688 918.582031 525.125 921.117188 C 524.203125 921.425781 523.203125 921.734375 522.28125 922.039062 C 521.359375 922.347656 520.4375 922.730469 519.515625 923.039062 C 517.75 923.652344 516.0625 924.269531 514.679688 924.730469 C 511.835938 925.726562 509.914062 926.417969 509.914062 926.417969 C 512.679688 922.730469 514.984375 918.199219 515.675781 913.746094 C 516.90625 905.601562 515.214844 892.160156 504.386719 891.929688 C 502.847656 891.929688 500.773438 893.234375 500.3125 894.617188 C 499.007812 898.074219 499.777344 899.996094 500.542969 903.453125 C 501.464844 907.367188 501.390625 911.054688 501.160156 915.050781 C 500.929688 918.582031 500.46875 922.039062 500.082031 925.574219 C 499.929688 927.265625 499.546875 928.875 499.160156 930.414062 C 499.160156 930.414062 497.316406 931.105469 494.476562 932.257812 C 491.632812 933.332031 487.871094 934.792969 484.183594 936.328125 C 476.730469 939.476562 469.28125 942.550781 469.28125 942.550781 C 471.816406 938.710938 473.8125 934.101562 474.273438 929.566406 C 475.042969 921.425781 472.507812 908.058594 461.597656 908.519531 C 460.0625 908.597656 458.066406 910.058594 457.679688 911.441406 C 456.605469 914.972656 457.449219 916.816406 458.449219 920.195312 C 459.601562 924.039062 459.753906 927.722656 459.753906 931.796875 C 459.753906 935.328125 459.523438 938.863281 459.371094 942.394531 C 459.292969 944.085938 459.0625 945.699219 458.757812 947.3125 L 450 950.769531 L 455.300781 962.0625 L 463.902344 958.144531 C 465.285156 958.988281 466.59375 959.832031 467.898438 960.910156 C 470.585938 963.136719 473.273438 965.285156 475.808594 967.746094 C 478.730469 970.511719 481.1875 973.121094 483.183594 976.65625 C 484.949219 979.726562 485.71875 981.648438 488.792969 983.414062 C 490.019531 984.105469 492.171875 983.800781 493.167969 982.800781 C 500.007812 975.8125 492.9375 964.363281 486.71875 959.140625 C 483.335938 956.222656 478.730469 954.378906 474.195312 953.535156 C 474.195312 953.535156 481.492188 950.460938 488.792969 947.390625 C 492.480469 945.851562 496.164062 944.46875 498.929688 943.394531 C 501.695312 942.320312 503.539062 941.628906 503.539062 941.628906 C 504.847656 942.550781 506.152344 943.472656 507.378906 944.625 C 509.914062 947.003906 512.449219 949.308594 514.832031 951.921875 C 517.597656 954.917969 519.902344 957.683594 521.667969 961.292969 C 523.203125 964.441406 523.894531 966.4375 526.816406 968.359375 C 527.96875 969.128906 530.195312 968.972656 531.191406 968.050781 C 538.492188 961.445312 532.113281 949.617188 526.277344 944.007812 C 523.050781 940.9375 518.59375 938.863281 514.140625 937.632812 C 514.140625 937.632812 515.984375 936.941406 518.824219 935.945312 C 520.207031 935.484375 521.820312 934.867188 523.589844 934.253906 C 524.433594 933.945312 525.355469 933.640625 526.277344 933.332031 C 527.199219 933.023438 528.121094 932.71875 529.121094 932.410156 C 536.648438 929.953125 544.175781 927.492188 544.175781 927.492188 C 545.402344 928.492188 546.632812 929.566406 547.785156 930.796875 C 550.167969 933.410156 552.625 935.867188 554.773438 938.632812 C 557.308594 941.78125 559.460938 944.699219 560.996094 948.386719 C 562.304688 951.613281 562.917969 953.609375 565.683594 955.761719 C 566.757812 956.605469 568.984375 956.53125 570.0625 955.683594 C 577.742188 949.617188 572.136719 937.480469 566.605469 931.410156 C 563.609375 928.03125 559.230469 925.804688 554.929688 924.34375 C 554.929688 924.34375 556.847656 923.808594 559.691406 922.960938 C 562.535156 922.117188 566.375 921.117188 570.214844 920.121094 C 574.054688 919.121094 577.898438 918.121094 580.738281 917.355469 C 583.65625 916.664062 585.578125 916.203125 585.578125 916.203125 C 586.808594 917.277344 587.960938 918.429688 589.035156 919.734375 C 591.261719 922.425781 593.488281 925.113281 595.5625 927.953125 C 597.867188 931.179688 599.867188 934.253906 601.171875 938.09375 C 602.324219 941.398438 602.707031 943.472656 605.394531 945.699219 C 606.472656 946.542969 608.621094 946.699219 609.773438 945.929688 C 617.839844 940.398438 613 927.878906 607.855469 921.503906 C 606.472656 919.734375 604.703125 918.199219 602.785156 916.894531 C 601.785156 916.203125 600.789062 915.585938 599.789062 915.050781 C 598.789062 914.511719 597.714844 914.050781 596.640625 913.667969 C 596.640625 913.667969 597.101562 913.589844 597.945312 913.359375 C 598.789062 913.128906 600.019531 912.898438 601.480469 912.59375 C 604.398438 911.976562 608.238281 911.210938 612.15625 910.363281 C 614.078125 909.980469 615.996094 909.597656 617.839844 909.210938 C 619.683594 908.90625 621.375 908.597656 622.832031 908.289062 C 625.753906 907.753906 627.671875 907.445312 627.671875 907.445312 C 628.824219 908.597656 629.898438 909.75 630.898438 911.132812 C 632.972656 913.976562 635.046875 916.738281 636.890625 919.660156 C 639.042969 923.039062 640.808594 926.265625 641.804688 930.105469 C 642.726562 933.484375 643.035156 935.558594 645.570312 938.019531 C 646.570312 939.015625 648.796875 939.246094 649.949219 938.554688 C 658.320312 933.484375 654.328125 920.65625 649.566406 914.050781 C 646.953125 910.363281 642.957031 907.523438 638.8125 905.523438 C 638.8125 905.523438 646.644531 904.371094 654.480469 903.21875 C 662.316406 902.296875 670.226562 901.300781 670.226562 901.300781 C 671.304688 902.527344 672.300781 903.757812 673.148438 905.21875 C 674.992188 908.136719 676.910156 911.132812 678.601562 914.207031 C 680.519531 917.738281 682.058594 921.042969 682.902344 925.035156 C 683.59375 928.492188 683.746094 930.566406 686.207031 933.179688 C 687.128906 934.175781 689.277344 934.5625 690.507812 933.945312 C 692.65625 932.792969 694.117188 931.105469 694.960938 929.105469 C 695.808594 927.1875 696.113281 924.882812 695.960938 922.578125 C 695.730469 917.890625 693.808594 912.898438 691.660156 909.441406 C 689.277344 905.679688 685.515625 902.527344 681.441406 900.300781 C 681.441406 900.300781 683.441406 900.148438 686.359375 899.839844 C 689.277344 899.535156 693.273438 899.148438 697.191406 898.917969 C 701.105469 898.6875 705.101562 898.382812 708.019531 898.226562 C 709.480469 898.152344 710.710938 898.074219 711.632812 897.996094 C 712.476562 897.996094 713.011719 897.921875 713.011719 897.921875 C 714.011719 899.226562 714.933594 900.53125 715.703125 901.992188 C 717.390625 905.0625 719.082031 908.058594 720.542969 911.285156 C 722.230469 914.894531 723.613281 918.351562 724.152344 922.269531 C 724.613281 925.726562 724.691406 927.800781 726.917969 930.566406 C 727.761719 931.640625 729.914062 932.101562 731.140625 931.566406 C 740.128906 927.648438 737.671875 914.433594 733.832031 907.214844 C 732.753906 905.21875 731.371094 903.375 729.683594 901.761719 C 728.070312 900.148438 726.148438 898.6875 724.230469 897.460938 C 724.230469 897.460938 726.226562 897.382812 729.144531 897.304688 C 732.140625 897.230469 736.058594 897.230469 740.050781 897.152344 C 744.046875 897.152344 747.964844 897 750.960938 897.074219 C 753.957031 897.152344 755.875 897.152344 755.875 897.152344 C 756.796875 898.457031 757.644531 899.839844 758.335938 901.378906 C 759.792969 904.527344 761.332031 907.675781 762.636719 910.902344 C 764.09375 914.664062 765.246094 918.121094 765.554688 922.117188 C 765.863281 925.574219 765.707031 927.648438 767.78125 930.566406 C 768.550781 931.71875 770.703125 932.332031 771.929688 931.871094 C 781.148438 928.492188 779.535156 915.125 776.15625 907.753906 C 774.3125 903.679688 770.933594 900.070312 767.167969 897.304688 C 767.167969 897.304688 775.078125 897.613281 782.992188 897.996094 C 786.984375 898.152344 790.902344 898.457031 793.824219 898.6875 C 796.820312 898.917969 798.738281 899.074219 798.738281 899.074219 C 799.582031 900.457031 800.273438 901.839844 800.890625 903.449219 C 802.195312 906.753906 803.5 909.828125 804.578125 913.207031 C 805.804688 917.046875 806.726562 920.582031 806.804688 924.652344 C 806.882812 928.109375 806.652344 930.257812 808.496094 933.253906 C 809.261719 934.40625 811.257812 935.175781 812.566406 934.792969 C 821.9375 931.871094 821.246094 918.507812 818.328125 910.902344 C 816.714844 906.753906 813.5625 902.914062 810.03125 899.996094 C 810.03125 899.996094 812.027344 900.226562 814.945312 900.457031 C 817.867188 900.761719 821.859375 901.070312 825.777344 901.609375 C 833.613281 902.605469 841.523438 903.605469 841.523438 903.605469 C 842.214844 904.988281 842.90625 906.523438 843.445312 908.136719 C 844.519531 911.515625 845.671875 914.742188 846.519531 918.199219 C 847.515625 922.117188 848.207031 925.652344 847.976562 929.722656 C 847.824219 933.179688 847.4375 935.253906 849.128906 938.402344 C 849.820312 939.628906 851.816406 940.476562 853.125 940.167969 C 855.503906 939.554688 857.273438 938.324219 858.65625 936.636719 C 859.960938 934.945312 860.804688 932.792969 861.265625 930.488281 C 862.1875 925.882812 861.574219 920.582031 860.34375 916.664062 C 859.039062 912.363281 856.121094 908.445312 852.738281 905.292969 C 852.738281 905.292969 854.660156 905.601562 857.65625 906.0625 C 860.574219 906.445312 864.492188 907.214844 868.410156 907.90625 C 872.328125 908.597656 876.167969 909.367188 879.085938 909.902344 C 882.007812 910.441406 883.925781 910.902344 883.925781 910.902344 C 884.539062 912.363281 885.15625 913.898438 885.539062 915.511719 C 886.382812 918.890625 887.304688 922.269531 887.921875 925.726562 C 888.613281 929.644531 889.148438 933.253906 888.6875 937.25 C 888.304688 940.707031 887.84375 942.78125 889.304688 945.929688 C 889.917969 947.160156 891.839844 948.234375 893.144531 948.003906 C 902.824219 946.390625 903.746094 933.023438 901.824219 925.113281 C 900.75 920.734375 898.136719 916.507812 894.988281 913.207031 C 894.988281 913.207031 895.449219 913.285156 896.292969 913.515625 C 897.136719 913.667969 898.367188 913.976562 899.828125 914.28125 C 902.746094 914.972656 906.585938 915.894531 910.425781 916.816406 C 912.347656 917.277344 914.269531 917.738281 916.113281 918.199219 C 917.878906 918.660156 919.570312 919.121094 921.027344 919.503906 C 923.871094 920.273438 925.789062 920.8125 925.789062 920.8125 C 926.328125 922.347656 926.789062 923.882812 927.097656 925.496094 C 927.710938 928.953125 928.480469 932.332031 928.863281 935.789062 C 929.324219 939.785156 929.632812 943.394531 928.941406 947.390625 C 928.324219 950.847656 927.710938 952.84375 929.015625 956.144531 C 929.476562 957.453125 931.398438 958.605469 932.78125 958.449219 C 942.535156 957.375 944.304688 944.085938 942.84375 936.097656 C 942.074219 931.71875 939.695312 927.339844 936.773438 923.808594 C 936.773438 923.808594 944.378906 926.113281 951.90625 928.339844 C 955.671875 929.492188 959.433594 930.796875 962.277344 931.71875 C 965.121094 932.640625 966.964844 933.253906 966.964844 933.253906 C 967.425781 934.792969 967.808594 936.328125 967.960938 938.019531 C 968.421875 941.472656 968.882812 944.929688 969.113281 948.464844 C 969.34375 952.457031 969.34375 956.144531 968.421875 960.0625 C 967.578125 963.445312 966.886719 965.441406 967.960938 968.820312 C 968.347656 970.125 970.1875 971.433594 971.570312 971.355469 C 981.402344 970.816406 984.015625 957.683594 983.015625 949.695312 C 982.480469 945.238281 980.40625 940.78125 977.640625 937.097656 C 977.640625 937.097656 979.484375 937.789062 982.324219 938.785156 C 985.089844 939.785156 988.855469 941.089844 992.542969 942.550781 C 999.917969 945.46875 1007.289062 948.3125 1007.289062 948.3125 C 1007.597656 949.847656 1007.90625 951.460938 1007.980469 953.148438 C 1008.210938 956.683594 1008.441406 960.140625 1008.441406 963.675781 C 1008.441406 967.667969 1008.210938 971.355469 1007.058594 975.195312 C 1006.0625 978.5 1005.21875 980.417969 1006.0625 983.875 C 1006.367188 985.183594 1008.136719 986.566406 1009.519531 986.566406 C 1019.351562 986.796875 1022.730469 973.8125 1022.269531 965.671875 C 1022.039062 961.140625 1020.195312 956.683594 1017.738281 952.765625 C 1017.738281 952.765625 1019.273438 953.457031 1021.578125 954.378906 C 1022.730469 954.917969 1024.113281 955.453125 1025.574219 956.070312 C 1027.03125 956.761719 1028.570312 957.453125 1030.105469 958.144531 C 1036.25 960.984375 1042.394531 963.75 1042.394531 963.75 L 1047.773438 952.535156 C 1047.773438 952.535156 1041.550781 949.695312 1035.328125 946.773438 C 1033.792969 946.082031 1032.179688 945.316406 1030.71875 944.699219 C 1029.261719 944.007812 1027.878906 943.472656 1026.648438 942.933594 C 1024.265625 941.933594 1022.730469 941.242188 1022.730469 941.242188 C 1027.261719 940.398438 1032.023438 938.632812 1035.636719 935.867188 C 1042.089844 930.875 1050 919.890625 1042.242188 912.207031 C 1041.167969 911.132812 1038.707031 910.75 1037.402344 911.363281 C 1034.097656 912.976562 1033.332031 914.972656 1031.5625 917.96875 C 1029.566406 921.425781 1026.957031 924.113281 1024.035156 926.878906 C 1021.5 929.335938 1018.734375 931.488281 1016.125 933.792969 C 1014.820312 934.945312 1013.511719 935.789062 1012.128906 936.710938 C 1012.128906 936.710938 1004.601562 933.792969 997.152344 930.796875 C 993.386719 929.261719 989.625 927.953125 986.78125 926.957031 C 983.9375 925.957031 982.019531 925.265625 982.019531 925.265625 C 986.550781 924.113281 991.160156 922.117188 994.539062 919.121094 C 1000.683594 913.667969 1007.90625 902.222656 999.6875 895.15625 C 998.535156 894.15625 996.074219 893.925781 994.847656 894.617188 C 991.621094 896.460938 991.007812 898.457031 989.46875 901.609375 C 987.703125 905.21875 985.246094 907.984375 982.554688 910.980469 C 980.175781 913.515625 977.5625 915.894531 975.027344 918.429688 C 973.644531 919.429688 972.417969 920.503906 971.109375 921.425781 Z M 971.109375 921.425781 " fill-opacity="1" fill-rule="nonzero"/></g><g transform="matrix(1, 0, 0, 1, 524, 594)"><g clip-path="url(#118dc6ad82)"><g fill="#29364a" fill-opacity="1"><g transform="translate(1.286207, 240.871882)"><g><path d="M 17.5625 -11.453125 L 17.5625 -166.75 L 12.46875 -178.203125 L 87.578125 -178.203125 L 115.578125 -150.203125 L 115.578125 -78.921875 L 87.578125 -50.921875 L 49.390625 -50.921875 L 49.390625 -11.453125 L 54.734375 0 L 12.734375 0 Z M 73.578125 -78.921875 L 83.75 -89.109375 L 83.75 -140.015625 L 73.578125 -150.203125 L 49.390625 -150.203125 L 49.390625 -78.921875 Z M 73.578125 -78.921875 "/></g></g></g><g fill="#29364a" fill-opacity="1"><g transform="translate(122.212427, 240.871882)"><g><path d="M 17.5625 -11.453125 L 17.5625 -166.75 L 12.46875 -178.203125 L 54.484375 -178.203125 L 49.390625 -166.75 L 49.390625 -28 L 88.84375 -28 L 100.296875 -33.09375 L 100.5625 0 L 12.734375 0 Z M 17.5625 -11.453125 "/></g></g></g><g fill="#29364a" fill-opacity="1"><g transform="translate(220.22632, 240.871882)"><g><path d="M 4.84375 -11.453125 L 36.65625 -166.75 L 31.5625 -178.203125 L 81.203125 -178.203125 L 115.578125 -11.453125 L 120.921875 0 L 81.46875 0 L 83.75 -11.453125 L 78.671875 -38.1875 L 41.75 -38.1875 L 36.65625 -11.453125 L 39.453125 0 L 0 0 Z M 73.578125 -66.1875 C 71.367188 -77.894531 69.285156 -88.925781 67.328125 -99.28125 C 65.378906 -109.632812 63.21875 -120.664062 60.84375 -132.375 L 59.578125 -132.375 L 46.84375 -66.1875 Z M 73.578125 -66.1875 "/></g></g></g><g fill="#29364a" fill-opacity="1"><g transform="translate(334.787995, 240.871882)"><g><path d="M 41.75 -11.453125 L 41.75 -59.828125 L 6.109375 -166.75 L 0 -178.203125 L 40.484375 -178.203125 L 37.9375 -166.75 L 57.03125 -106.921875 L 58.296875 -106.921875 L 77.390625 -166.75 L 74.84375 -178.203125 L 115.578125 -178.203125 L 109.21875 -166.75 L 73.578125 -59.828125 L 73.578125 -11.453125 L 78.921875 0 L 36.90625 0 Z M 41.75 -11.453125 "/></g></g></g></g></g><g fill="#29364a" fill-opacity="1"><g transform="translate(620.62837, 527.786771)"><g><path d="M 8.59375 -7.046875 L -7.359375 -86.609375 L -10.3125 -91.359375 L 30.75 -99.59375 L 32.9375 -88.6875 L 27.40625 -89.59375 L 3.015625 -84.703125 L 9.71875 -51.328125 L 26.40625 -54.671875 L 31.15625 -57.640625 L 33.734375 -44.796875 L 28.203125 -45.703125 L 11.515625 -42.359375 L 18.203125 -8.984375 L 21.171875 -4.25 L 7.703125 -1.546875 Z M 8.59375 -7.046875 "/></g></g></g><g fill="#29364a" fill-opacity="1"><g transform="translate(677.138086, 517.194664)"><g><path d="M 9.171875 -6.28125 L 0.234375 -86.921875 L -2.28125 -91.90625 L 11.375 -93.421875 L 9.984375 -88 L 18.921875 -7.359375 L 21.46875 -2.375 L 7.8125 -0.859375 Z M 9.171875 -6.28125 "/></g></g></g><g fill="#29364a" fill-opacity="1"><g transform="translate(711.176541, 512.883199)"><g><path d="M 9.734375 -5.375 L 8.515625 -86.5 L 6.484375 -91.71875 L 38.546875 -92.1875 L 52.5 -78.65625 L 52.96875 -47.25 L 42.65625 -36.625 L 53.578125 -6.03125 L 56.28125 -0.84375 L 42.53125 -0.640625 L 43.765625 -5.890625 L 33.546875 -33.234375 L 19.140625 -33.015625 L 19.546875 -5.53125 L 21.59375 -0.328125 L 7.859375 -0.125 Z M 35.359375 -42.40625 L 43.09375 -50.390625 L 42.734375 -75.234375 L 34.75 -82.96875 L 18.390625 -82.734375 L 19 -42.171875 Z M 35.359375 -42.40625 "/></g></g></g><g fill="#29364a" fill-opacity="1"><g transform="translate(776.705628, 512.434067)"><g><path d="M 6.96875 -10.484375 L 11.96875 -8 L 28.25 -6.375 L 36.859375 -13.421875 L 38.09375 -25.796875 L 11.703125 -58.015625 L 13.59375 -76.90625 L 28.625 -89.203125 L 54.03125 -86.671875 L 52.9375 -75.59375 L 47.90625 -78.078125 L 31.640625 -79.703125 L 23.03125 -72.65625 L 21.859375 -60.9375 L 48.25 -28.71875 L 46.296875 -9.1875 L 31.25 3.125 L 5.859375 0.578125 Z M 6.96875 -10.484375 "/></g></g></g><g fill="#29364a" fill-opacity="1"><g transform="translate(831.971322, 518.269648)"><g><path d="M 19.640625 -1.3125 L 35.125 -76.96875 L 22.9375 -79.46875 L 17.421875 -78.578125 L 19.65625 -89.484375 L 63.890625 -80.4375 L 61.65625 -69.53125 L 56.90625 -72.515625 L 44.75 -75 L 29.265625 0.65625 L 30.125 6.171875 L 16.671875 3.40625 Z M 19.640625 -1.3125 "/></g></g></g><g fill="#29364a" fill-opacity="1"><g transform="translate(585.858517, 1060.674997)"><g><path d="M 7.3125 -7.46875 L 11.015625 -4.65625 L 24.015625 -0.8125 L 32.109375 -5.203125 L 35.046875 -15.109375 L 18.5625 -45.453125 L 23.03125 -60.5625 L 37.1875 -68.25 L 57.484375 -62.234375 L 54.859375 -53.390625 L 51.171875 -56.1875 L 38.171875 -60.046875 L 30.078125 -55.640625 L 27.296875 -46.28125 L 43.765625 -15.90625 L 39.140625 -0.296875 L 24.984375 7.40625 L 4.6875 1.390625 Z M 7.3125 -7.46875 "/></g></g></g><g fill="#29364a" fill-opacity="1"><g transform="translate(637.55649, 1075.544727)"><g><path d="M 8.765625 -2.875 L 20.421875 -69.171875 L 19.578125 -73.734375 L 46.296875 -69.03125 L 55.5625 -55.84375 L 50.390625 -26.421875 L 37.828125 -17.609375 L 20.171875 -20.71875 L 16.78125 -1.46875 L 17.65625 3.109375 L 6.421875 1.125 Z M 35.921875 -25.65625 L 42.84375 -30.5 L 47.078125 -54.5625 L 41.796875 -62.109375 L 27.875 -64.5625 L 21.484375 -28.203125 Z M 35.921875 -25.65625 "/></g></g></g><g fill="#29364a" fill-opacity="1"><g transform="translate(699.015404, 1085.640325)"><g><path d="M 7.015625 -9.96875 L 9.796875 -65.28125 L 21.78125 -76.09375 L 37.484375 -75.3125 L 48.296875 -63.34375 L 45.515625 -8.03125 L 33.5625 2.765625 L 17.859375 1.984375 Z M 30.703125 -4.96875 L 37.53125 -11.15625 L 40.046875 -61.03125 L 33.875 -67.859375 L 24.640625 -68.328125 L 17.8125 -62.15625 L 15.296875 -12.28125 L 21.46875 -5.4375 Z M 30.703125 -4.96875 "/></g></g></g><g fill="#29364a" fill-opacity="1"><g transform="translate(762.355579, 1088.079187)"><g><path d="M 7.796875 -4.921875 L 2.828125 -72.046875 L 0.890625 -76.28125 L 27.40625 -78.234375 L 39.625 -67.71875 L 41.546875 -41.71875 L 33.53125 -32.421875 L 44.0625 -7.609375 L 46.5625 -3.453125 L 35.1875 -2.609375 L 35.953125 -7.015625 L 26.15625 -29.140625 L 14.234375 -28.265625 L 15.90625 -5.53125 L 17.875 -1.328125 L 6.5 -0.484375 Z M 27.21875 -36.859375 L 33.234375 -43.84375 L 31.71875 -64.40625 L 24.734375 -70.421875 L 11.1875 -69.421875 L 13.671875 -35.859375 Z M 27.21875 -36.859375 "/></g></g></g><g fill="#29364a" fill-opacity="1"><g transform="translate(824.47923, 1082.526905)"><g><path d="M 14.6875 -7.171875 L 2.875 -70.140625 L -7.28125 -68.234375 L -11.25 -65.84375 L -12.953125 -74.90625 L 23.875 -81.8125 L 25.578125 -72.75 L 21 -73.546875 L 10.875 -71.640625 L 22.6875 -8.671875 L 25.078125 -4.703125 L 13.859375 -2.609375 Z M 14.6875 -7.171875 "/></g></g></g><g fill="#29364a" fill-opacity="1"><g transform="translate(874.172232, 1072.699212)"><g><path d="M 2.0625 -10.25 L 6.703125 -9.90625 L 19.703125 -13.75 L 24.109375 -21.859375 L 21.171875 -31.765625 L -9.1875 -48.234375 L -13.65625 -63.34375 L -5.96875 -77.5 L 14.328125 -83.515625 L 16.953125 -74.671875 L 12.328125 -75 L -0.671875 -71.140625 L -5.078125 -63.046875 L -2.296875 -53.6875 L 28.046875 -37.1875 L 32.671875 -21.578125 L 24.984375 -7.40625 L 4.6875 -1.390625 Z M 2.0625 -10.25 "/></g></g></g></svg>
